<svg width="985" height="347" viewBox="0 0 985 347" fill="none" xmlns="http://www.w3.org/2000/svg">
<path d="M96.408 88H78.232L63.896 48.832H63.64L49.56 88H31.384L0.664 0.703995H24.856L42.008 53.824H42.136L53.4 19.008L47.896 0.703995H70.68L87.192 53.824H87.32L103.832 0.703995H127.128L96.408 88ZM193.39 88H139.886V0.703995H190.062V20.416H162.03V33.728H188.782V53.568H162.03V68.288H193.39V88ZM327.844 88H303.524L297.636 70.08H269.092L263.204 88H239.78L273.828 0.703995H293.668L327.844 88ZM283.3 27.072L275.108 51.648H291.492L283.428 27.072H283.3ZM413.605 88H387.493L363.429 46.784V45.888C379.045 43.328 384.421 38.208 384.421 31.04C384.421 24.128 379.429 20.16 370.981 20.16H362.277V88H340.133V0.703995H373.669C393.509 0.703995 406.693 9.792 406.693 28.096C406.693 40 402.341 47.936 392.741 53.568V53.824L413.605 88ZM481.015 88H427.511V0.703995H477.687V20.416H449.655V33.728H476.407V53.568H449.655V68.288H481.015V88ZM63.64 216H10.136V128.704H60.312V148.416H32.28V161.728H59.032V181.568H32.28V196.288H63.64V216ZM158.695 216H140.391L103.655 169.28H103.527V216H81.383V136L76.263 129.6V128.704H99.943L136.423 176.32H136.551V128.704H158.695V216ZM218.39 216.128H196.246V149.824H173.59V128.832H240.79V149.824H218.39V216.128ZM329.105 216H302.993L278.929 174.784V173.888C294.545 171.328 299.921 166.208 299.921 159.04C299.921 152.128 294.929 148.16 286.481 148.16H277.777V216H255.633V128.704H289.169C309.009 128.704 322.193 137.792 322.193 156.096C322.193 168 317.841 175.936 308.241 181.568V181.824L329.105 216ZM396.515 216H343.011V128.704H393.187V148.416H365.155V161.728H391.907V181.568H365.155V196.288H396.515V216ZM480.434 157.12C480.434 177.216 465.97 188.864 436.402 192.192V216H414.258V128.704H446.386C466.994 128.704 480.434 138.56 480.434 157.12ZM458.162 159.168C458.162 152.128 452.914 148.416 445.362 148.416H436.402V172.864C451.89 171.84 458.162 165.952 458.162 159.168ZM568.355 216H542.243L518.179 174.784V173.888C533.795 171.328 539.171 166.208 539.171 159.04C539.171 152.128 534.179 148.16 525.731 148.16H517.027V216H494.883V128.704H528.419C548.259 128.704 561.443 137.792 561.443 156.096C561.443 168 557.091 175.936 547.491 181.568V181.824L568.355 216ZM635.765 216H582.261V128.704H632.437V148.416H604.405V161.728H631.157V181.568H604.405V196.288H635.765V216ZM730.82 216H712.516L675.78 169.28H675.652V216H653.508V136L648.388 129.6V128.704H672.068L708.548 176.32H708.676V128.704H730.82V216ZM806.515 216H753.011V128.704H803.187V148.416H775.155V161.728H801.907V181.568H775.155V196.288H806.515V216ZM856.898 218.304C835.65 218.304 822.978 207.68 822.978 187.456V128.704H845.122V185.536C845.122 193.856 849.346 197.824 856.642 197.824C863.81 197.824 868.162 193.856 868.162 185.536V128.704H890.69V187.456C890.69 207.68 877.89 218.304 856.898 218.304ZM984.855 216H958.743L934.679 174.784V173.888C950.295 171.328 955.671 166.208 955.671 159.04C955.671 152.128 950.679 148.16 942.231 148.16H933.527V216H911.383V128.704H944.919C964.759 128.704 977.943 137.792 977.943 156.096C977.943 168 973.591 175.936 963.991 181.568V181.824L984.855 216ZM71.064 314.816V339.136C64.28 343.616 54.808 346.304 45.08 346.304C22.04 346.304 3.864 329.664 3.864 300.352C3.864 272.704 19.992 254.4 44.952 254.4C54.424 254.4 63.896 256.832 70.552 261.568V285.888H70.04C64.92 279.488 56.6 275.52 48.024 275.52C34.968 275.52 26.904 285.12 26.904 300.352C26.904 315.328 34.84 325.184 48.536 325.184C56.856 325.184 65.304 321.216 70.552 314.816H71.064ZM139.077 344H88.133V256.704H110.277V323.008H139.077V344ZM186.273 346.304C165.025 346.304 152.353 335.68 152.353 315.456V256.704H174.497V313.536C174.497 321.856 178.721 325.824 186.017 325.824C193.185 325.824 197.537 321.856 197.537 313.536V256.704H220.065V315.456C220.065 335.68 207.265 346.304 186.273 346.304ZM308.598 319.168C308.598 335.04 296.694 344 275.702 344H240.758V256.704H274.55C292.47 256.704 303.606 264.512 303.606 278.848C303.606 287.936 298.358 294.208 292.086 298.048V298.176C302.198 300.608 308.598 307.904 308.598 319.168ZM286.326 316.992C286.326 311.616 282.102 308.8 275.574 308.8H262.902V325.696H275.19C282.23 325.696 286.326 323.008 286.326 316.992ZM281.078 282.688C281.078 277.952 277.366 274.88 271.606 274.88H262.902V291.264H273.91C278.774 289.472 281.078 286.784 281.078 282.688ZM344.684 314.304H326.636L324.204 248H346.988L344.684 314.304ZM345.58 344H325.612V324.032H345.58V344Z" fill="white"/>
</svg>
