<svg width="896" height="448" viewBox="0 0 896 448" fill="none" xmlns="http://www.w3.org/2000/svg">
<g clip-path="url(#clip0_826_200)">
<path d="M266 55.9951C262.287 55.9951 258.726 57.4701 256.1 60.0956C253.475 62.7211 252 66.2821 252 69.9951V153.995C252 157.708 253.475 161.269 256.1 163.895C258.726 166.52 262.287 167.995 266 167.995H294C295.153 167.995 296.281 168.339 297.238 168.983C298.195 169.627 298.938 170.541 299.373 171.61C299.807 172.678 299.913 173.852 299.677 174.981C299.441 176.11 298.873 177.143 298.047 177.948L261.953 214.042C258.813 217.197 255.08 219.7 250.969 221.408C246.859 223.116 242.451 223.995 238 223.995H210H42C38.287 223.995 34.726 225.47 32.1005 228.096C29.475 230.721 28 234.282 28 237.995V321.995V377.995C28 381.708 29.475 385.269 32.1005 387.895C34.726 390.52 38.287 391.995 42 391.995H182C185.713 391.995 189.274 390.52 191.899 387.895C194.525 385.269 196 381.708 196 377.995V349.995C196 346.282 197.475 342.721 200.1 340.096C202.726 337.47 206.287 335.995 210 335.995H350C353.713 335.995 357.274 334.52 359.9 331.895C362.525 329.269 364 325.708 364 321.995V237.995C364 234.282 362.525 230.721 359.9 228.096C357.274 225.47 353.713 223.995 350 223.995H322C320.847 223.995 319.719 223.651 318.762 223.007C317.805 222.364 317.062 221.449 316.627 220.38C316.193 219.312 316.087 218.138 316.323 217.009C316.559 215.88 317.127 214.847 317.953 214.042L354.047 177.948C357.187 174.794 360.92 172.29 365.031 170.582C369.141 168.874 373.549 167.995 378 167.995H798C799.743 167.993 801.467 168.367 803.053 169.091C804.639 169.814 806.051 170.871 807.192 172.189C808.334 173.507 809.178 175.055 809.668 176.728C810.158 178.401 810.282 180.16 810.031 181.886L790.016 322.104C789.474 325.955 787.56 329.481 784.626 332.033C781.692 334.585 777.936 335.992 774.047 335.995H546C542.287 335.995 538.726 337.47 536.1 340.096C533.475 342.721 532 346.282 532 349.995V517.995C532 521.708 533.475 525.269 536.1 527.895C538.726 530.52 542.287 531.995 546 531.995H798C801.713 531.995 805.274 530.52 807.9 527.895C810.525 525.269 812 521.708 812 517.995V405.995C812 402.282 813.475 398.721 816.1 396.096C818.726 393.47 822.287 391.995 826 391.995H840V363.995H826C824.256 363.997 822.533 363.624 820.946 362.901C819.36 362.177 817.948 361.12 816.806 359.802C815.665 358.485 814.82 356.936 814.331 355.263C813.841 353.589 813.718 351.83 813.969 350.104L838.031 181.886C838.574 178.035 840.488 174.51 843.421 171.958C846.355 169.406 850.112 167.999 854 167.995C857.713 167.995 861.274 166.52 863.9 163.895C866.525 161.269 868 157.708 868 153.995V69.9951C868 66.2821 866.525 62.7211 863.9 60.0956C861.274 57.4701 857.713 55.9951 854 55.9951H266Z" fill="url(#paint0_linear_826_200)"/>
<path d="M140.896 300.435C138.955 300.435 137.069 300.024 135.24 299.203C133.448 298.382 131.861 297.131 130.48 295.451C129.099 293.734 127.997 291.568 127.176 288.955C126.392 286.304 126 283.15 126 279.491C126 275.646 126.429 272.323 127.288 269.523C128.184 266.723 129.379 264.446 130.872 262.691C132.365 260.899 134.064 259.574 135.968 258.715C137.909 257.856 139.944 257.427 142.072 257.427C144.611 257.427 146.795 257.894 148.624 258.827C150.491 259.723 152.04 260.824 153.272 262.131L148.904 267.059C148.195 266.238 147.261 265.528 146.104 264.931C144.947 264.334 143.771 264.035 142.576 264.035C140.896 264.035 139.365 264.52 137.984 265.491C136.64 266.462 135.557 268.067 134.736 270.307C133.915 272.547 133.504 275.608 133.504 279.491C133.504 283.075 133.821 285.95 134.456 288.115C135.128 290.243 136.005 291.792 137.088 292.763C138.171 293.734 139.384 294.219 140.728 294.219C141.773 294.219 142.707 293.939 143.528 293.379C144.387 292.782 145.077 291.923 145.6 290.803C146.123 289.646 146.384 288.227 146.384 286.547C146.384 284.904 146.123 283.56 145.6 282.515C145.115 281.47 144.424 280.686 143.528 280.163C142.669 279.64 141.643 279.379 140.448 279.379C139.328 279.379 138.152 279.734 136.92 280.443C135.688 281.115 134.549 282.31 133.504 284.027L133.112 278.483C133.859 277.438 134.736 276.542 135.744 275.795C136.789 275.048 137.853 274.488 138.936 274.115C140.056 273.742 141.064 273.555 141.96 273.555C144.275 273.555 146.328 274.022 148.12 274.955C149.949 275.888 151.368 277.307 152.376 279.211C153.384 281.115 153.888 283.56 153.888 286.547C153.888 289.384 153.291 291.848 152.096 293.939C150.939 295.992 149.371 297.598 147.392 298.755C145.413 299.875 143.248 300.435 140.896 300.435ZM172.704 259.891V265.939H195.832V259.891H172.704ZM166.096 254.011H202.888V271.763H166.096V254.011ZM158.928 274.675H209.384V280.779H158.928V274.675ZM170.856 284.027H198.24V290.131H170.856V284.027ZM195.832 284.027H203.056C203.056 284.027 203.037 284.214 203 284.587C202.963 284.923 202.925 285.315 202.888 285.763C202.851 286.174 202.795 286.528 202.72 286.827C202.347 289.888 201.936 292.464 201.488 294.555C201.04 296.608 200.555 298.27 200.032 299.539C199.509 300.808 198.893 301.76 198.184 302.395C197.325 303.179 196.411 303.702 195.44 303.963C194.469 304.262 193.331 304.467 192.024 304.579C190.941 304.654 189.523 304.672 187.768 304.635C186.051 304.635 184.221 304.598 182.28 304.523C182.243 303.552 182 302.451 181.552 301.219C181.141 300.024 180.6 298.979 179.928 298.083C181.197 298.195 182.467 298.288 183.736 298.363C185.005 298.438 186.144 298.494 187.152 298.531C188.197 298.531 188.981 298.531 189.504 298.531C190.176 298.531 190.717 298.512 191.128 298.475C191.539 298.4 191.931 298.232 192.304 297.971C192.789 297.598 193.237 296.888 193.648 295.843C194.059 294.798 194.432 293.379 194.768 291.587C195.141 289.795 195.477 287.574 195.776 284.923L195.832 284.027ZM170.856 276.411L178.08 277.419C177.557 279.174 176.979 281.003 176.344 282.907C175.747 284.811 175.131 286.64 174.496 288.395C173.899 290.15 173.339 291.718 172.816 293.099L165.536 291.979C166.096 290.598 166.693 289.03 167.328 287.275C168 285.483 168.635 283.654 169.232 281.787C169.867 279.883 170.408 278.091 170.856 276.411ZM243.544 296.459H262.192V302.115H243.544V296.459ZM240.912 267.339H247.016V304.691H240.912V267.339ZM243.544 267.339H262.304V282.571H243.544V277.195H256.144V272.659H243.544V267.339ZM237.72 257.987H265.944V268.515H259.672V263.419H243.712V268.515H237.72V257.987ZM248.248 251.995H254.8V260.731H248.248V251.995ZM243.544 286.043H264.712V304.355H258.496V291.587H243.544V286.043ZM224.728 262.747H230.216V269.747H224.728V262.747ZM217.336 267.395H223.272V298.475H217.336V267.395ZM221.256 274.899H233.352V279.155H221.256V274.899ZM213.92 296.795C215.525 296.534 217.355 296.179 219.408 295.731C221.499 295.283 223.701 294.798 226.016 294.275C228.331 293.752 230.645 293.23 232.96 292.707L233.576 298.027C230.515 298.886 227.416 299.744 224.28 300.603C221.181 301.462 218.344 302.246 215.768 302.955L213.92 296.795ZM227.024 289.683L232.344 287.387C233.24 288.731 234.117 290.187 234.976 291.755C235.835 293.323 236.6 294.872 237.272 296.403C237.981 297.896 238.485 299.24 238.784 300.435L233.072 303.067C232.811 301.835 232.363 300.454 231.728 298.923C231.093 297.392 230.365 295.824 229.544 294.219C228.76 292.576 227.92 291.064 227.024 289.683ZM220.64 267.395H236.04V286.827H220.64V282.067H230.16V272.155H220.64V267.395ZM223.104 252.051H226.688V253.339H228.648V255.131C227.901 256.55 226.987 258.118 225.904 259.835C224.821 261.515 223.552 263.251 222.096 265.043C220.64 266.798 218.923 268.496 216.944 270.139C216.645 269.691 216.253 269.187 215.768 268.627C215.283 268.03 214.779 267.47 214.256 266.947C213.733 266.424 213.248 266.014 212.8 265.715C214.517 264.408 216.029 262.99 217.336 261.459C218.643 259.891 219.781 258.304 220.752 256.699C221.723 255.094 222.507 253.544 223.104 252.051ZM224.672 252.051H229.152C230.309 252.947 231.467 253.955 232.624 255.075C233.781 256.158 234.864 257.259 235.872 258.379C236.917 259.499 237.757 260.544 238.392 261.515L234.136 266.443C233.613 265.51 232.885 264.446 231.952 263.251C231.056 262.019 230.067 260.824 228.984 259.667C227.901 258.472 226.837 257.464 225.792 256.643H224.672V252.051Z" fill="black"/>
<path d="M325.696 131.651V106.171C325.696 104.976 325.733 103.558 325.808 101.915C325.883 100.235 325.957 98.7791 326.032 97.5471H325.752C325.267 98.6671 324.744 99.7871 324.184 100.907C323.624 102.027 323.045 103.166 322.448 104.323L316.008 114.627H338.296V120.899H308V115.299L323.456 90.1551H333.368V131.651H325.696ZM356.328 91.8911V97.9391H379.456V91.8911H356.328ZM349.72 86.0111H386.512V103.763H349.72V86.0111ZM342.552 106.675H393.008V112.779H342.552V106.675ZM354.48 116.027H381.864V122.131H354.48V116.027ZM379.456 116.027H386.68C386.68 116.027 386.661 116.214 386.624 116.587C386.587 116.923 386.549 117.315 386.512 117.763C386.475 118.174 386.419 118.528 386.344 118.827C385.971 121.888 385.56 124.464 385.112 126.555C384.664 128.608 384.179 130.27 383.656 131.539C383.133 132.808 382.517 133.76 381.808 134.395C380.949 135.179 380.035 135.702 379.064 135.963C378.093 136.262 376.955 136.467 375.648 136.579C374.565 136.654 373.147 136.672 371.392 136.635C369.675 136.635 367.845 136.598 365.904 136.523C365.867 135.552 365.624 134.451 365.176 133.219C364.765 132.024 364.224 130.979 363.552 130.083C364.821 130.195 366.091 130.288 367.36 130.363C368.629 130.438 369.768 130.494 370.776 130.531C371.821 130.531 372.605 130.531 373.128 130.531C373.8 130.531 374.341 130.512 374.752 130.475C375.163 130.4 375.555 130.232 375.928 129.971C376.413 129.598 376.861 128.888 377.272 127.843C377.683 126.798 378.056 125.379 378.392 123.587C378.765 121.795 379.101 119.574 379.4 116.923L379.456 116.027ZM354.48 108.411L361.704 109.419C361.181 111.174 360.603 113.003 359.968 114.907C359.371 116.811 358.755 118.64 358.12 120.395C357.523 122.15 356.963 123.718 356.44 125.099L349.16 123.979C349.72 122.598 350.317 121.03 350.952 119.275C351.624 117.483 352.259 115.654 352.856 113.787C353.491 111.883 354.032 110.091 354.48 108.411ZM427.168 128.459H445.816V134.115H427.168V128.459ZM424.536 99.3391H430.64V136.691H424.536V99.3391ZM427.168 99.3391H445.928V114.571H427.168V109.195H439.768V104.659H427.168V99.3391ZM421.344 89.9871H449.568V100.515H443.296V95.4191H427.336V100.515H421.344V89.9871ZM431.872 83.9951H438.424V92.7311H431.872V83.9951ZM427.168 118.043H448.336V136.355H442.12V123.587H427.168V118.043ZM408.352 94.7471H413.84V101.747H408.352V94.7471ZM400.96 99.3951H406.896V130.475H400.96V99.3951ZM404.88 106.899H416.976V111.155H404.88V106.899ZM397.544 128.795C399.149 128.534 400.979 128.179 403.032 127.731C405.123 127.283 407.325 126.798 409.64 126.275C411.955 125.752 414.269 125.23 416.584 124.707L417.2 130.027C414.139 130.886 411.04 131.744 407.904 132.603C404.805 133.462 401.968 134.246 399.392 134.955L397.544 128.795ZM410.648 121.683L415.968 119.387C416.864 120.731 417.741 122.187 418.6 123.755C419.459 125.323 420.224 126.872 420.896 128.403C421.605 129.896 422.109 131.24 422.408 132.435L416.696 135.067C416.435 133.835 415.987 132.454 415.352 130.923C414.717 129.392 413.989 127.824 413.168 126.219C412.384 124.576 411.544 123.064 410.648 121.683ZM404.264 99.3951H419.664V118.827H404.264V114.067H413.784V104.155H404.264V99.3951ZM406.728 84.0511H410.312V85.3391H412.272V87.1311C411.525 88.5498 410.611 90.1178 409.528 91.8351C408.445 93.5151 407.176 95.2511 405.72 97.0431C404.264 98.7978 402.547 100.496 400.568 102.139C400.269 101.691 399.877 101.187 399.392 100.627C398.907 100.03 398.403 99.4698 397.88 98.9471C397.357 98.4244 396.872 98.0138 396.424 97.7151C398.141 96.4084 399.653 94.9898 400.96 93.4591C402.267 91.8911 403.405 90.3044 404.376 88.6991C405.347 87.0938 406.131 85.5444 406.728 84.0511ZM408.296 84.0511H412.776C413.933 84.9471 415.091 85.9551 416.248 87.0751C417.405 88.1578 418.488 89.2591 419.496 90.3791C420.541 91.4991 421.381 92.5444 422.016 93.5151L417.76 98.4431C417.237 97.5098 416.509 96.4458 415.576 95.2511C414.68 94.0191 413.691 92.8244 412.608 91.6671C411.525 90.4724 410.461 89.4644 409.416 88.6431H408.296V84.0511ZM454.272 131.651V126.891C458.043 123.531 461.253 120.414 463.904 117.539C466.592 114.664 468.645 111.995 470.064 109.531C471.483 107.03 472.192 104.715 472.192 102.587C472.192 101.243 471.949 100.067 471.464 99.0591C470.979 98.0511 470.269 97.2858 469.336 96.7631C468.44 96.2031 467.32 95.9231 465.976 95.9231C464.483 95.9231 463.101 96.3524 461.832 97.2111C460.6 98.0324 459.461 99.0218 458.416 100.179L453.824 95.7551C455.765 93.6645 457.744 92.0964 459.76 91.0511C461.813 89.9684 464.24 89.4271 467.04 89.4271C469.653 89.4271 471.931 89.9684 473.872 91.0511C475.851 92.0964 477.381 93.5711 478.464 95.4751C479.547 97.3791 480.088 99.6191 480.088 102.195C480.088 104.696 479.453 107.254 478.184 109.867C476.952 112.443 475.291 115.019 473.2 117.595C471.109 120.171 468.795 122.71 466.256 125.211C467.339 125.062 468.496 124.95 469.728 124.875C470.997 124.763 472.117 124.707 473.088 124.707H482.048V131.651H454.272ZM510.664 90.7711H520.8V95.9791H510.664V90.7711ZM511.784 120.787H532V125.883H511.784V120.787ZM511.56 129.355H533.344V134.843H511.56V129.355ZM507.696 84.8351H513.688V104.715H507.696V84.8351ZM504.28 103.539C506.408 103.203 508.947 102.755 511.896 102.195C514.883 101.598 517.907 100.982 520.968 100.347L521.472 105.387C518.784 106.022 516.077 106.656 513.352 107.291C510.627 107.926 508.125 108.523 505.848 109.083L504.28 103.539ZM522.48 84.8351H528.528V101.019C528.528 101.803 528.603 102.307 528.752 102.531C528.901 102.718 529.256 102.811 529.816 102.811C529.928 102.811 530.115 102.811 530.376 102.811C530.675 102.811 530.992 102.811 531.328 102.811C531.664 102.811 531.981 102.811 532.28 102.811C532.579 102.811 532.784 102.811 532.896 102.811C533.269 102.811 533.549 102.699 533.736 102.475C533.923 102.251 534.053 101.803 534.128 101.131C534.24 100.422 534.315 99.3765 534.352 97.9951C534.949 98.4805 535.771 98.9471 536.816 99.3951C537.899 99.8431 538.869 100.16 539.728 100.347C539.504 102.438 539.149 104.062 538.664 105.219C538.216 106.376 537.581 107.198 536.76 107.683C535.939 108.131 534.893 108.355 533.624 108.355C533.363 108.355 533.008 108.355 532.56 108.355C532.149 108.355 531.701 108.355 531.216 108.355C530.731 108.355 530.264 108.355 529.816 108.355C529.405 108.355 529.051 108.355 528.752 108.355C527.072 108.355 525.765 108.15 524.832 107.739C523.936 107.291 523.32 106.544 522.984 105.499C522.648 104.416 522.48 102.942 522.48 101.075V84.8351ZM534.576 87.7471L538.888 92.1711C537.059 93.2538 535.061 94.2618 532.896 95.1951C530.731 96.0911 528.659 96.8751 526.68 97.5471C526.568 96.9124 526.325 96.1844 525.952 95.3631C525.579 94.5418 525.224 93.8324 524.888 93.2351C526.045 92.7498 527.221 92.2084 528.416 91.6111C529.611 91.0138 530.731 90.3978 531.776 89.7631C532.859 89.0911 533.792 88.4191 534.576 87.7471ZM517.608 106.787L524.384 107.963C523.861 109.382 523.357 110.744 522.872 112.051C522.424 113.358 521.995 114.496 521.584 115.467L515.76 114.291C516.133 113.246 516.488 112.014 516.824 110.595C517.197 109.176 517.459 107.907 517.608 106.787ZM508.536 112.051H536.704V136.355H530.208V117.539H514.752V136.579H508.536V112.051ZM488.992 86.4591H501.984V92.4511H494.872V136.691H488.992V86.4591ZM499.968 86.4591H501.032L501.984 86.2351L506.352 88.6991C505.904 90.3044 505.4 92.0218 504.84 93.8511C504.317 95.6431 503.757 97.4164 503.16 99.1711C502.6 100.926 502.059 102.55 501.536 104.043C503.253 106.171 504.355 108.206 504.84 110.147C505.325 112.051 505.568 113.806 505.568 115.411C505.605 117.166 505.419 118.659 505.008 119.891C504.597 121.086 503.944 122 503.048 122.635C502.637 122.934 502.171 123.176 501.648 123.363C501.125 123.55 500.565 123.699 499.968 123.811C499.483 123.848 498.923 123.886 498.288 123.923C497.691 123.923 497.056 123.904 496.384 123.867C496.347 123.083 496.216 122.15 495.992 121.067C495.768 119.947 495.432 118.995 494.984 118.211C495.432 118.248 495.843 118.267 496.216 118.267C496.627 118.267 496.981 118.267 497.28 118.267C497.915 118.267 498.419 118.118 498.792 117.819C499.128 117.558 499.371 117.147 499.52 116.587C499.669 116.027 499.744 115.355 499.744 114.571C499.707 113.264 499.445 111.771 498.96 110.091C498.475 108.411 497.467 106.619 495.936 104.715C496.347 103.483 496.739 102.12 497.112 100.627C497.485 99.0964 497.859 97.5658 498.232 96.0351C498.605 94.4671 498.941 93.0298 499.24 91.7231C499.539 90.3791 499.781 89.2778 499.968 88.4191V86.4591Z" fill="black"/>
<path d="M896 363.995H840V391.995H896V363.995Z" fill="url(#paint1_linear_826_200)"/>
<path d="M784 111.995H616C608.268 111.995 602 118.263 602 125.995V181.995C602 189.727 608.268 195.995 616 195.995H784C791.732 195.995 798 189.727 798 181.995V125.995C798 118.263 791.732 111.995 784 111.995Z" fill="url(#paint2_linear_826_200)"/>
<path d="M616 140.242C619.024 139.458 621.757 138.55 624.198 137.52C626.662 136.467 628.824 135.37 630.683 134.227C631.848 133.51 633.013 132.693 634.178 131.774C635.365 130.834 636.474 129.87 637.504 128.885C638.557 127.899 639.442 126.958 640.158 126.062L643.787 129.523C642.757 130.531 641.626 131.55 640.394 132.581C639.184 133.611 637.918 134.597 636.597 135.538C635.275 136.478 633.965 137.341 632.666 138.125C631.389 138.864 629.955 139.626 628.365 140.41C626.797 141.194 625.139 141.933 623.392 142.627C621.645 143.322 619.886 143.938 618.117 144.475L616 140.242ZM629.978 136.378L634.749 135.269V150.389C634.749 150.882 634.76 151.419 634.782 152.002C634.805 152.584 634.838 153.122 634.883 153.614C634.928 154.13 634.984 154.522 635.051 154.79H629.742C629.787 154.522 629.821 154.13 629.843 153.614C629.888 153.122 629.922 152.584 629.944 152.002C629.966 151.419 629.978 150.882 629.978 150.389V136.378ZM655.614 127.776C656.197 128.179 656.88 128.672 657.664 129.254C658.448 129.837 659.254 130.475 660.083 131.17C660.934 131.842 661.73 132.502 662.469 133.152C663.208 133.802 663.813 134.384 664.283 134.899L660.856 138.394C660.43 137.923 659.87 137.363 659.176 136.714C658.482 136.064 657.731 135.392 656.925 134.698C656.118 134.003 655.323 133.342 654.539 132.715C653.755 132.088 653.061 131.562 652.456 131.136L655.614 127.776ZM651.414 150.154C653.162 149.907 654.808 149.56 656.354 149.112C657.899 148.664 659.333 148.149 660.654 147.566C661.976 146.984 663.186 146.379 664.283 145.752C666.187 144.61 667.934 143.31 669.525 141.854C671.115 140.398 672.504 138.886 673.691 137.318C674.878 135.728 675.819 134.182 676.514 132.682L679.134 137.419C678.283 138.92 677.23 140.421 675.976 141.922C674.744 143.422 673.344 144.856 671.776 146.222C670.208 147.566 668.517 148.776 666.702 149.851C665.56 150.546 664.328 151.206 663.006 151.834C661.685 152.438 660.285 152.976 658.806 153.446C657.35 153.939 655.827 154.32 654.237 154.589L651.414 150.154ZM693.347 129.322C693.258 128.829 693.146 128.381 693.011 127.978C692.899 127.574 692.787 127.171 692.675 126.768L697.413 125.995C697.458 126.331 697.502 126.757 697.547 127.272C697.614 127.765 697.693 128.213 697.782 128.616C697.827 128.93 697.928 129.512 698.085 130.363C698.242 131.214 698.432 132.245 698.656 133.454C698.88 134.664 699.126 135.974 699.395 137.386C699.686 138.774 699.966 140.186 700.235 141.619C700.504 143.03 700.762 144.374 701.008 145.651C701.277 146.928 701.501 148.059 701.68 149.045C701.882 150.03 702.027 150.758 702.117 151.229C702.229 151.722 702.363 152.259 702.52 152.842C702.677 153.424 702.834 153.984 702.99 154.522L698.118 155.395C698.029 154.768 697.962 154.163 697.917 153.581C697.872 153.021 697.794 152.494 697.682 152.002C697.592 151.554 697.458 150.87 697.278 149.952C697.122 149.011 696.92 147.914 696.674 146.659C696.45 145.405 696.203 144.072 695.934 142.661C695.666 141.25 695.397 139.838 695.128 138.427C694.859 137.016 694.602 135.694 694.355 134.462C694.131 133.23 693.93 132.166 693.75 131.27C693.571 130.352 693.437 129.702 693.347 129.322ZM684.174 133.589C684.712 133.566 685.238 133.544 685.754 133.522C686.269 133.477 686.784 133.421 687.299 133.354C687.792 133.286 688.486 133.197 689.382 133.085C690.278 132.95 691.309 132.805 692.474 132.648C693.638 132.469 694.837 132.278 696.069 132.077C697.323 131.875 698.533 131.685 699.698 131.506C700.862 131.304 701.893 131.125 702.789 130.968C703.707 130.811 704.424 130.688 704.939 130.598C705.477 130.486 706.037 130.374 706.619 130.262C707.202 130.128 707.694 130.005 708.098 129.893L708.904 134.294C708.546 134.317 708.064 134.373 707.459 134.462C706.854 134.552 706.306 134.63 705.813 134.698C705.208 134.787 704.413 134.91 703.427 135.067C702.464 135.224 701.389 135.403 700.202 135.605C699.014 135.784 697.805 135.974 696.573 136.176C695.341 136.355 694.165 136.546 693.045 136.747C691.925 136.926 690.939 137.083 690.088 137.218C689.237 137.352 688.598 137.453 688.173 137.52C687.635 137.632 687.131 137.744 686.661 137.856C686.19 137.946 685.664 138.069 685.082 138.226L684.174 133.589ZM684.208 143.467C684.656 143.445 685.216 143.4 685.888 143.333C686.582 143.243 687.187 143.165 687.702 143.098C688.307 143.008 689.114 142.885 690.122 142.728C691.13 142.571 692.261 142.392 693.515 142.19C694.792 141.989 696.102 141.787 697.446 141.586C698.79 141.362 700.101 141.138 701.378 140.914C702.654 140.69 703.819 140.488 704.872 140.309C705.925 140.13 706.776 139.984 707.426 139.872C708.075 139.738 708.691 139.603 709.274 139.469C709.878 139.334 710.405 139.2 710.853 139.066L711.76 143.501C711.312 143.523 710.763 143.59 710.114 143.702C709.486 143.792 708.848 143.893 708.198 144.005C707.482 144.117 706.586 144.262 705.51 144.442C704.435 144.621 703.248 144.822 701.949 145.046C700.672 145.248 699.362 145.461 698.018 145.685C696.674 145.886 695.386 146.099 694.154 146.323C692.922 146.525 691.813 146.704 690.827 146.861C689.842 147.018 689.069 147.152 688.509 147.264C687.792 147.398 687.142 147.522 686.56 147.634C686 147.746 685.53 147.858 685.149 147.97L684.208 143.467ZM740.219 137.285C740.13 137.509 740.062 137.755 740.018 138.024C739.973 138.293 739.928 138.517 739.883 138.696C739.816 139.166 739.715 139.816 739.581 140.645C739.469 141.474 739.334 142.392 739.178 143.4C739.043 144.386 738.898 145.382 738.741 146.39C738.584 147.398 738.438 148.317 738.304 149.146C738.192 149.974 738.091 150.635 738.002 151.128H733.398C733.488 150.658 733.589 150.064 733.701 149.347C733.813 148.608 733.936 147.813 734.07 146.962C734.227 146.088 734.362 145.214 734.474 144.341C734.608 143.467 734.72 142.661 734.81 141.922C734.899 141.182 734.955 140.589 734.978 140.141C734.664 140.141 734.182 140.141 733.533 140.141C732.906 140.141 732.189 140.141 731.382 140.141C730.598 140.141 729.814 140.141 729.03 140.141C728.269 140.141 727.608 140.141 727.048 140.141C726.488 140.141 726.107 140.141 725.906 140.141C725.368 140.141 724.786 140.163 724.158 140.208C723.554 140.23 723.016 140.264 722.546 140.309V135.874C722.837 135.918 723.184 135.952 723.587 135.974C723.99 135.997 724.394 136.019 724.797 136.042C725.222 136.064 725.581 136.075 725.872 136.075C726.208 136.075 726.667 136.075 727.25 136.075C727.832 136.075 728.47 136.075 729.165 136.075C729.859 136.075 730.554 136.075 731.248 136.075C731.942 136.075 732.57 136.075 733.13 136.075C733.712 136.075 734.16 136.075 734.474 136.075C734.72 136.075 735.011 136.064 735.347 136.042C735.683 136.019 736.008 135.986 736.322 135.941C736.635 135.874 736.848 135.795 736.96 135.706L740.219 137.285ZM719.454 149.482C719.902 149.526 720.418 149.571 721 149.616C721.605 149.638 722.198 149.65 722.781 149.65C723.117 149.65 723.733 149.65 724.629 149.65C725.547 149.65 726.622 149.65 727.854 149.65C729.109 149.65 730.397 149.65 731.718 149.65C733.062 149.65 734.339 149.65 735.549 149.65C736.781 149.65 737.834 149.65 738.707 149.65C739.581 149.65 740.141 149.65 740.387 149.65C740.813 149.65 741.362 149.638 742.034 149.616C742.706 149.594 743.254 149.56 743.68 149.515V153.85C743.456 153.827 743.142 153.805 742.739 153.782C742.358 153.782 741.955 153.771 741.53 153.749C741.126 153.749 740.768 153.749 740.454 153.749C740.186 153.749 739.603 153.749 738.707 153.749C737.811 153.749 736.747 153.749 735.515 153.749C734.283 153.749 732.984 153.749 731.618 153.749C730.274 153.749 728.974 153.749 727.72 153.749C726.488 153.749 725.424 153.749 724.528 153.749C723.632 153.749 723.05 153.749 722.781 153.749C722.198 153.749 721.661 153.749 721.168 153.749C720.675 153.771 720.104 153.805 719.454 153.85V149.482ZM772.139 130.027C772.453 130.475 772.8 131.024 773.181 131.674C773.584 132.323 773.976 132.973 774.357 133.622C774.738 134.272 775.051 134.866 775.298 135.403L772.274 136.714C771.96 135.997 771.635 135.336 771.299 134.731C770.986 134.104 770.661 133.51 770.325 132.95C770.011 132.368 769.642 131.797 769.216 131.237L772.139 130.027ZM776.642 128.179C776.978 128.605 777.347 129.142 777.75 129.792C778.154 130.419 778.546 131.058 778.926 131.707C779.33 132.334 779.654 132.906 779.901 133.421L776.978 134.832C776.619 134.115 776.272 133.466 775.936 132.883C775.6 132.278 775.253 131.707 774.894 131.17C774.558 130.61 774.178 130.05 773.752 129.49L776.642 128.179ZM749.493 143.736C750.008 143.31 750.467 142.907 750.87 142.526C751.274 142.146 751.744 141.698 752.282 141.182C752.662 140.779 753.099 140.298 753.592 139.738C754.085 139.178 754.611 138.55 755.171 137.856C755.754 137.162 756.347 136.456 756.952 135.739C757.557 135 758.15 134.283 758.733 133.589C759.718 132.402 760.738 131.752 761.79 131.64C762.843 131.506 764.019 132.066 765.318 133.32C766.08 134.014 766.853 134.765 767.637 135.571C768.443 136.378 769.227 137.184 769.989 137.99C770.773 138.797 771.501 139.57 772.173 140.309C772.934 141.093 773.786 142 774.726 143.03C775.69 144.061 776.664 145.114 777.65 146.189C778.658 147.264 779.587 148.261 780.438 149.179L776.742 153.144C776.003 152.203 775.208 151.218 774.357 150.187C773.506 149.157 772.677 148.16 771.87 147.197C771.064 146.211 770.325 145.338 769.653 144.576C769.182 143.994 768.645 143.378 768.04 142.728C767.458 142.056 766.875 141.395 766.293 140.746C765.71 140.096 765.173 139.514 764.68 138.998C764.187 138.483 763.795 138.069 763.504 137.755C762.944 137.218 762.462 136.971 762.059 137.016C761.678 137.038 761.242 137.352 760.749 137.957C760.435 138.382 760.054 138.886 759.606 139.469C759.158 140.051 758.699 140.667 758.229 141.317C757.758 141.966 757.299 142.594 756.851 143.198C756.426 143.803 756.045 144.33 755.709 144.778C755.328 145.315 754.947 145.864 754.566 146.424C754.186 146.962 753.838 147.454 753.525 147.902L749.493 143.736Z" fill="white"/>
</g>
<defs>
<linearGradient id="paint0_linear_826_200" x1="560" y1="419.995" x2="560" y2="447.995" gradientUnits="userSpaceOnUse">
<stop stop-color="#C3DCE6" stop-opacity="0.75"/>
<stop offset="1" stop-color="white" stop-opacity="0"/>
</linearGradient>
<linearGradient id="paint1_linear_826_200" x1="868" y1="363.995" x2="896" y2="363.995" gradientUnits="userSpaceOnUse">
<stop stop-color="#C3DCE6" stop-opacity="0.75"/>
<stop offset="1" stop-color="white" stop-opacity="0"/>
</linearGradient>
<linearGradient id="paint2_linear_826_200" x1="700" y1="167.995" x2="700" y2="195.995" gradientUnits="userSpaceOnUse">
<stop stop-color="#FF6600"/>
<stop offset="1" stop-color="#FFCC00"/>
</linearGradient>
<clipPath id="clip0_826_200">
<rect width="896" height="448" fill="white" transform="translate(0 -0.00488281)"/>
</clipPath>
</defs>
</svg>
